#!OML:ASF E:\Style4\Style4.ASF
:FULLY-SPECIFIED
:DEGREES
2093
root -0.207829 17.5019 -1.57404 1.46927 3.6899 4.36843
lowerback 8.36689 4.9327 2.68863
upperback 5.73375 6.72469 0.208761
thorax 1.56457 3.44586 -1.71946
lowerneck -0.635566 -6.30037 -4.34696
upperneck -8.90561 -8.35073 2.48541
head -2.41891 -4.09299 1.66855
rclavicle -3.4191e-014 9.54166e-015
rhumerus 53.1436 -2.06962 -39.2475
rradius 49.6615
rwrist -37.4681
rhand -14.2155 22.5478
rfingers 7.12502
rthumb 11.9213 -7.09282
lclavicle -3.4191e-014 9.54166e-015
lhumerus 17.2821 -35.9271 12.1581
lradius 116.69
lwrist 44.736
lhand 9.6985 18.6241
lfingers 7.12502
lthumb 34.8403 45.2173
rfemur -20.7547 -3.87175 14.7798
rtibia 41.7703
rfoot -20.8518 -16.2136
rtoes -9.56975
lfemur -20.6392 -1.43975 -22.9873
ltibia 39.2601
lfoot -17.687 6.35063
ltoes -15.5077
2094
root -0.197395 17.5141 -1.58059 1.48342 3.54379 4.24897
lowerback 8.2094 4.8611 2.82928
upperback 5.76591 6.63184 0.479238
thorax 1.66311 3.39932 -1.49793
lowerneck -0.81248 -6.33542 -4.74853
upperneck -8.86496 -8.39012 2.56786
head -2.35326 -4.1027 1.75259
rclavicle 1.63003e-014 3.49861e-014
rhumerus 52.8766 -1.72974 -39.2284
rradius 49.4364
rwrist -38.1473
rhand -13.8568 22.2739
rfingers 7.12502
rthumb 12.2672 -7.34626
lclavicle 1.63003e-014 3.49861e-014
lhumerus 17.2931 -36.2334 12.2217
lradius 117.446
lwrist 45.4594
lhand 10.0489 18.9128
lfingers 7.12502
lthumb 35.1727 45.4284
rfemur -20.6823 -3.66667 14.8739
rtibia 41.5346
rfoot -20.6742 -16.1181
rtoes -8.96313
lfemur -20.7864 -1.2254 -22.9019
ltibia 39.3957
lfoot -17.4773 6.42097
ltoes -15.7301
2095
root -0.18878 17.5263 -1.58796 1.49107 3.40817 4.15908
lowerback 8.15215 4.80853 2.90946
upperback 5.7055 6.56438 0.741277
thorax 1.60586 3.36085 -1.26932
lowerneck -0.780911 -6.36314 -4.84083
upperneck -8.9124 -8.44786 2.33113
head -2.37911 -4.1214 1.69588
rclavicle -3.22031e-014 2.22639e-014
rhumerus 52.49 -1.34229 -39.3154
rradius 49.1958
rwrist -38.4824
rhand -13.43 22.1307
rfingers 7.12502
rthumb 12.6786 -7.46447
lclavicle -3.22031e-014 2.22639e-014
lhumerus 17.4171 -36.5782 12.2436
lradius 118.159
lwrist 46.3137
lhand 10.304 19.2809
lfingers 7.12502
lthumb 35.4146 45.7391
rfemur -20.6156 -3.44869 14.9427
rtibia 41.2921
rfoot -20.6443 -16.1155
rtoes -8.63211
lfemur -20.9507 -1.04184 -22.842
ltibia 39.5613
lfoot -17.2112 6.47836
ltoes -15.7079
2096
root -0.180739 17.5338 -1.59631 1.4866 3.30465 4.12943
lowerback 8.16032 4.762 2.99389
upperback 5.61349 6.50871 0.920905
thorax 1.49126 3.32909 -1.13573
lowerneck -0.665299 -6.38863 -4.86488
upperneck -8.99415 -8.50262 2.14982
head -2.43198 -4.14178 1.65056
rclavicle -2.18663e-014 1.11319e-014
rhumerus 51.9904 -0.979955 -39.5669
rradius 48.9595
rwrist -38.576
rhand -12.8599 22.1427
rfingers 7.12502
rthumb 13.2282 -7.41753
lclavicle -2.18663e-014 1.11319e-014
lhumerus 17.6427 -36.8467 12.1161
lradius 118.866
lwrist 46.9678
lhand 10.6994 19.4664
lfingers 7.12502
lthumb 35.7894 45.8344
rfemur -20.5271 -3.32726 14.9466
rtibia 41.0348
rfoot -20.5473 -16.1243
rtoes -8.56966
lfemur -21.1034 -0.826797 -22.8546
ltibia 39.7396
lfoot -16.9143 6.54755
ltoes -15.7693
2097
root -0.170208 17.542 -1.60394 1.46428 3.22945 4.15648
lowerback 8.0825 4.72701 3.20254
upperback 5.63401 6.47158 0.964536
thorax 1.57275 3.31671 -1.19385
lowerneck -0.748058 -6.46455 -4.6854
upperneck -9.09634 -8.61094 1.97045
head -2.46236 -4.19472 1.56422
rclavicle -4.09496e-014 6.36111e-015
rhumerus 51.3944 -0.829438 -39.9899
rradius 48.8064
rwrist -38.3969
rhand -12.3775 22.2033
rfingers 7.12502
rthumb 13.6932 -7.32618
lclavicle -4.09496e-014 6.36111e-015
lhumerus 18.143 -36.8714 11.664
lradius 119.636
lwrist 47.2501
lhand 11.004 19.6372
lfingers 7.12502
lthumb 36.078 45.9345
rfemur -20.4069 -3.32542 14.8744
rtibia 40.7765
rfoot -20.3897 -16.0453
rtoes -8.62472
lfemur -21.1924 -0.625257 -22.9248
ltibia 39.8979
lfoot -16.7168 6.42524
ltoes -15.9249
2098
root -0.15968 17.5521 -1.60979 1.45487 3.08891 4.18211
lowerback 8.05151 4.71897 3.4337
upperback 5.61464 6.47374 0.986592
thorax 1.59397 3.32371 -1.29514
lowerneck -0.902106 -6.55539 -4.4631
upperneck -9.09018 -8.74069 1.70576
head -2.44926 -4.25891 1.43749
rclavicle 1.19271e-015 2.70347e-014
rhumerus 50.6458 -0.609798 -40.4301
rradius 48.7837
rwrist -37.9956
rhand -12.2237 21.8357
rfingers 7.12502
rthumb 13.8414 -7.68379
lclavicle 1.19271e-015 2.70347e-014
lhumerus 18.78 -36.8794 11.1361
lradius 120.404
lwrist 47.4861
lhand 10.9752 19.9275
lfingers 7.12502
lthumb 36.0507 46.2315
rfemur -20.3159 -3.22505 14.7988
rtibia 40.5414
rfoot -20.2984 -15.918
rtoes -8.21859
lfemur -21.2615 -0.404362 -22.9798
ltibia 40.0249
lfoot -16.5582 6.2993
ltoes -16.4054
2099
root -0.149674 17.5624 -1.61496 1.41235 2.91486 4.21097
lowerback 8.17857 4.70358 3.58515
upperback 5.49734 6.4697 1.08426
thorax 1.40784 3.31933 -1.29684
lowerneck -0.895281 -6.62779 -4.43333
upperneck -9.04878 -8.8563 1.45059
head -2.44606 -4.31084 1.352
rclavicle 8.66701e-014 -2.22639e-014
rhumerus 49.9029 -0.160439 -40.6191
rradius 48.7764
rwrist -37.9048
rhand -12.0233 21.0762
rfingers 7.12502
rthumb 14.0346 -8.42999
lclavicle 8.66701e-014 -2.22639e-014
lhumerus 19.2624 -36.8126 10.8802
lradius 121.086
lwrist 48.3128
lhand 11.1265 19.9658
lfingers 7.12502
lthumb 36.194 46.2344
rfemur -20.2019 -3.09472 14.7266
rtibia 40.3322
rfoot -20.1859 -15.847
rtoes -8.42241
lfemur -21.2903 -0.186865 -23.035
ltibia 40.1196
lfoot -16.3323 6.26688
ltoes -16.7616
2100
root -0.139429 17.5704 -1.61888 1.37591 2.73877 4.30136
lowerback 8.25033 4.67863 3.62538
upperback 5.39309 6.4442 1.19973
thorax 1.24959 3.30142 -1.21284
lowerneck -0.849713 -6.64763 -4.42945
upperneck -9.03062 -8.90728 1.15257
head -2.46077 -4.32799 1.25958
rclavicle -8.8658e-014 -1.43125e-014
rhumerus 49.3383 0.250465 -40.8681
rradius 48.6265
rwrist -38.1882
rhand -11.2564 20.3147
rfingers 7.12502
rthumb 14.7735 -9.13881
lclavicle -8.8658e-014 -1.43125e-014
lhumerus 19.6745 -36.5114 10.7328
lradius 121.708
lwrist 49.5288
lhand 11.5157 20.0441
lfingers 7.12502
lthumb 36.5625 46.2204
rfemur -20.1054 -2.99197 14.581
rtibia 40.1569
rfoot -20.1047 -15.7419
rtoes -8.61691
lfemur -21.2942 -0.0101602 -23.1534
ltibia 40.1791
lfoot -16.1405 6.23939
ltoes -16.7287
